<svg xmlns="http://www.w3.org/2000/svg" viewBox="0 0 320 210" role="img" aria-label="Machine unlearning topic diagram">
  <rect width="320" height="210" rx="4" fill="#f8f9fa"/>
  <rect x="22" y="22" width="276" height="166" rx="3" fill="#fff" stroke="#a2a9b1" stroke-width="1.5"/>
  <g stroke="#72777d" stroke-width="2" fill="none">
    <path d="M58 62h92M58 91h92M58 120h92M58 149h92"/>
    <path d="M178 61c28 0 52 17 62 41s4 52-15 70"/>
    <path d="M178 149c24 0 44-14 54-34"/>
  </g>
  <g>
    <circle cx="58" cy="62" r="11" fill="#eaf3ff" stroke="#36c" stroke-width="2"/>
    <circle cx="58" cy="91" r="11" fill="#eaf3ff" stroke="#36c" stroke-width="2"/>
    <circle cx="58" cy="120" r="11" fill="#ffe9e5" stroke="#d73333" stroke-width="2"/>
    <circle cx="58" cy="149" r="11" fill="#eaf3ff" stroke="#36c" stroke-width="2"/>
    <rect x="146" y="46" width="56" height="118" rx="8" fill="#f8f9fa" stroke="#202122" stroke-width="2"/>
    <path d="M159 71h30M159 97h30M159 123h30M159 149h30" stroke="#202122" stroke-width="2" stroke-linecap="round"/>
    <circle cx="240" cy="104" r="28" fill="#fff4de" stroke="#ac6600" stroke-width="2.4"/>
    <path d="M226 104h28M240 90v28" stroke="#ac6600" stroke-width="4" stroke-linecap="round" transform="rotate(45 240 104)"/>
  </g>
  <g fill="#202122" font-family="Georgia, Times New Roman, serif" font-size="15">
    <text x="77" y="67">retain</text>
    <text x="77" y="96">retain</text>
    <text x="77" y="125">remove</text>
    <text x="77" y="154">retain</text>
    <text x="132" y="38">trained model</text>
    <text x="213" y="162">update</text>
  </g>
</svg>
